# xmcd
#
# Track frame offsets:
#	150
#	10927
#	20852
#	31505
#	45497
#	58395
#	72030
#	88060
#	97812
#	107367
#
# Disc length: 1587 seconds
#
# Revision: 0
# Processed by: cddbd v1.4PL0 Copyright (c) Steve Scherf et al.
# Submitted via: EasyCDDAExtractor 4.6.0.1
#
DISCID=7206310a
DTITLE=Holiday Corral - Country Christmas
DYEAR=1900
DGENRE=Country
TTITLE0=Jingle Bells
TTITLE1=Winter Wonderland
TTITLE2=Silent Night
TTITLE3=The Twelve Days of Christmas
TTITLE4=O' Holy Night
TTITLE5=It Came Upon A Midnight Clear
TTITLE6=Blue Christmas
TTITLE7=O' Come All Ye Faithful
TTITLE8=We Wish You A Merry Christmas
TTITLE9=God Rest Ye Merry Gentlemen
EXTD=
EXTT0=
EXTT1=
EXTT2=
EXTT3=
EXTT4=
EXTT5=
EXTT6=
EXTT7=
EXTT8=
EXTT9=
PLAYORDER=
